# xmcd
#
# Track frame offsets:
#	150
#	12196
#	25944
#	40908
#	56167
#	69898
#	85847
#	106808
#	117310
#	129400
#	138186
#	151145
#	157977
#
# Disc length: 2197 seconds
#
# Revision: 1
# Processed by: cddbd v1.5.2PL0 Copyright (c) Steve Scherf et al.
# Submitted via: EasyCDDAExtractor 12.0.0.1
#
DISCID=9908930d
DTITLE=Various Artist - ΤΟ ΒΗΜΑ - Όλα Θυμίζουν Τον Μάνο Λοΐζο - CD5
DYEAR=2008
DGENRE=GREEK
TTITLE0=Χάρις Αλεξίου - Μια Καλημέρα
TTITLE1=Χάρις Αλεξίου - Ποιος Το Ξέρει
TTITLE2=Γιώργος Νταλάρας - Αχ Χελιδόνι Μου
TTITLE3=Κώστας Σμοκοβίτης,Αλέκα Αλιμπέρτη - Καλημέρα Ήλιε
TTITLE4=Κώστας Σμοκοβίτης - Ας Μην Είχες Τόσα Λάθη
TTITLE5=Κώστας Σμοκοβίτης - Με Φάρο Το Φεγγάρι
TTITLE6=Λοΐζος Μάνος - Κανένας Δε Μου Μίλησε
TTITLE7=Γιάννης Καλατζής - Εγώ Είμαι Ένα Μορτάκι
TTITLE8=Γιάννης Καλατζής - Τη Ζωή Μου Σου 'χω Δώσει
TTITLE9=Νίκος Αντωνιάδης - Ηλεκτρική Μαρία
TTITLE10=Είπα Στον Κόκορά Μου - Είπα Στον Κόκορά Μου
TTITLE11=Λοΐζος Μάνος - Το Μεθυσμένο Παπί
TTITLE12=Λοΐζος Μάνος - Κάτω Από Ένα Κουνουπίδι
EXTD=
EXTT0=
EXTT1=
EXTT2=
EXTT3=
EXTT4=
EXTT5=
EXTT6=
EXTT7=
EXTT8=
EXTT9=
EXTT10=
EXTT11=
EXTT12=
PLAYORDER=
